<svg width="256" height="256" viewBox="0 0 256 256" fill="none" xmlns="http://www.w3.org/2000/svg">
<g filter="url(#filter0_d_8_42)">
<path d="M92.8043 37.3333C96.2603 37.3333 99.6523 38.2677 102.596 40.0213L104.324 41.1733L124.804 56.5333H199.467C207.232 56.5322 214.732 59.3546 220.57 64.4743C226.408 69.5941 230.185 76.6619 231.198 84.3605L231.403 86.4341L231.467 88.5333V184.533C231.468 192.658 228.379 200.478 222.826 206.409C217.273 212.34 209.673 215.936 201.566 216.469L199.467 216.533H58.6667C50.5423 216.535 42.7216 213.446 36.7909 207.893C30.8602 202.34 27.2636 194.739 26.7307 186.633L26.6667 184.533V69.3333C26.6654 61.2089 29.7544 53.3882 35.3072 47.4575C40.8599 41.5269 48.4606 37.9303 56.5675 37.3973L58.6667 37.3333H92.8043ZM105.476 88.9685C102.321 92.2834 98.0861 94.3624 93.5339 94.8309L91.5755 94.9333L39.4667 94.9205V184.533C39.4669 189.306 41.2448 193.908 44.4538 197.441C47.6627 200.974 52.0726 203.186 56.8235 203.644L58.6667 203.733H199.467C204.238 203.733 208.838 201.957 212.37 198.751C215.903 195.545 218.116 191.138 218.577 186.389L218.667 184.533V88.5333C218.667 83.7624 216.891 79.1624 213.684 75.6295C210.478 72.0967 206.071 69.8841 201.323 69.4229L199.467 69.3333H124.164L105.476 88.9685ZM92.8171 50.1333H58.6667C53.8938 50.1335 49.2921 51.9115 45.7589 55.1204C42.2257 58.3294 40.0145 62.7393 39.5563 67.4901L39.4667 69.3333V82.1205L91.5755 82.1333C92.9705 82.1352 94.3279 81.6812 95.4411 80.8405L96.2091 80.1493L112.35 63.1893L96.6443 51.4133C95.8155 50.7948 94.8493 50.3864 93.8283 50.2229L92.8043 50.1333H92.8171Z" fill="white"/>
<path d="M92.8171 48.8333C92.8507 48.8334 92.8843 48.8337 92.9179 48.8342L92.8171 49.987V48.8333Z" stroke="url(#paint0_linear_8_42)" stroke-width="23"/>
</g>
<defs>
<filter id="filter0_d_8_42" x="22.6667" y="34.3333" width="212.8" height="187.2" filterUnits="userSpaceOnUse" color-interpolation-filters="sRGB">
<feFlood flood-opacity="0" result="BackgroundImageFix"/>
<feColorMatrix in="SourceAlpha" type="matrix" values="0 0 0 0 0 0 0 0 0 0 0 0 0 0 0 0 0 0 127 0" result="hardAlpha"/>
<feOffset dy="1"/>
<feGaussianBlur stdDeviation="2"/>
<feComposite in2="hardAlpha" operator="out"/>
<feColorMatrix type="matrix" values="0 0 0 0 0.775 0 0 0 0 0.55 0 0 0 0 1 0 0 0 1 0"/>
<feBlend mode="normal" in2="BackgroundImageFix" result="effect1_dropShadow_8_42"/>
<feBlend mode="normal" in="SourceGraphic" in2="effect1_dropShadow_8_42" result="shape"/>
</filter>
<linearGradient id="paint0_linear_8_42" x1="38.4" y1="46.9336" x2="211.733" y2="217.6" gradientUnits="userSpaceOnUse">
<stop stop-color="#E645DF"/>
<stop offset="1" stop-color="#663399"/>
</linearGradient>
</defs>
</svg>
